HIERARCHY
ROOT joint_Root
{
	OFFSET 0.0 0.0 0.0
	CHANNELS 6 Xposition Yposition Zposition Zrotation Xrotation Yrotation 
	JOINT Hips
	{
		OFFSET -17.1583 93.1646 452.98
		CHANNELS 6 Xposition Yposition Zposition Zrotation Xrotation Yrotation 
		JOINT Spine
		{
			OFFSET 15.7357 0.0 0.0
			CHANNELS 6 Xposition Yposition Zposition Zrotation Xrotation Yrotation 
			JOINT Chest
			{
				OFFSET 8.98455 -0.406207 0.0
				CHANNELS 6 Xposition Yposition Zposition Zrotation Xrotation Yrotation 
				JOINT Neck
				{
					OFFSET 16.3773 0.0 0.0
					CHANNELS 6 Xposition Yposition Zposition Zrotation Xrotation Yrotation 
					JOINT Head
					{
						OFFSET 6.45672 0.0 0.0
						CHANNELS 6 Xposition Yposition Zposition Zrotation Xrotation Yrotation 
						End Site
						{
							OFFSET 0.0 0.0 0.0
						}
					}
				}
				JOINT Shoulder_L
				{
					OFFSET 12.9942 -0.242716 4.98039
					CHANNELS 6 Xposition Yposition Zposition Zrotation Xrotation Yrotation 
					JOINT UpperArm_L
					{
						OFFSET 5.34809 0.0 0.0
						CHANNELS 6 Xposition Yposition Zposition Zrotation Xrotation Yrotation 
						JOINT LowerArm_L
						{
							OFFSET 24.3286 1.87007e-05 0.0
							CHANNELS 6 Xposition Yposition Zposition Zrotation Xrotation Yrotation 
							JOINT Hand_L
							{
								OFFSET 22.2916 0.0 0.0
								CHANNELS 6 Xposition Yposition Zposition Zrotation Xrotation Yrotation 
								End Site
								{
									OFFSET 0.0 0.0 0.0
								}
							}
						}
					}
				}
				JOINT Shoulder_R
				{
					OFFSET 12.9945 -0.242716 -4.98039
					CHANNELS 6 Xposition Yposition Zposition Zrotation Xrotation Yrotation 
					JOINT UpperArm_R
					{
						OFFSET -5.34813 0.0 0.0
						CHANNELS 6 Xposition Yposition Zposition Zrotation Xrotation Yrotation 
						JOINT LowerArm_R
						{
							OFFSET -24.3289 0.000322201 0.0
							CHANNELS 6 Xposition Yposition Zposition Zrotation Xrotation Yrotation 
							JOINT Hand_R
							{
								OFFSET -22.2915 -0.000108084 0.0
								CHANNELS 6 Xposition Yposition Zposition Zrotation Xrotation Yrotation 
								End Site
								{
									OFFSET 0.0 0.0 0.0
								}
							}
						}
					}
				}
			}
		}
		JOINT UpperLeg_L
		{
			OFFSET -2.19248 -6.46944 0.0
			CHANNELS 6 Xposition Yposition Zposition Zrotation Xrotation Yrotation 
			JOINT LowerLeg_L
			{
				OFFSET 39.0811 0.0 -1.23785e-05
				CHANNELS 6 Xposition Yposition Zposition Zrotation Xrotation Yrotation 
				JOINT Foot_L
				{
					OFFSET 40.9854 0.0 -1.26872e-05
					CHANNELS 6 Xposition Yposition Zposition Zrotation Xrotation Yrotation 
					JOINT Toes_L
					{
						OFFSET 11.7543 0.0 0.0
						CHANNELS 6 Xposition Yposition Zposition Zrotation Xrotation Yrotation 
						End Site
						{
							OFFSET 0.0 0.0 0.0
						}
					}
				}
			}
		}
		JOINT UpperLeg_R
		{
			OFFSET -2.19251 6.46944 0.0
			CHANNELS 6 Xposition Yposition Zposition Zrotation Xrotation Yrotation 
			JOINT LowerLeg_R
			{
				OFFSET -39.0811 -0.00228153 -0.0401928
				CHANNELS 6 Xposition Yposition Zposition Zrotation Xrotation Yrotation 
				JOINT Foot_R
				{
					OFFSET -40.9854 0.0 0.0
					CHANNELS 6 Xposition Yposition Zposition Zrotation Xrotation Yrotation 
					JOINT Toes_R
					{
						OFFSET -11.7543 0.0 0.0
						CHANNELS 6 Xposition Yposition Zposition Zrotation Xrotation Yrotation 
						End Site
						{
							OFFSET 0.0 0.0 0.0
						}
					}
				}
			}
		}
	}
}
MOTION
Frames:	4
Frame Time:	0.0333333
0.000000 0.000000 0.000000 0.000000 0.000000 -0.000000 -1.049640 92.878500 0.328983 87.505800 -2.343760 2.798890 15.735700 0.000005 -0.000001 113.819000 86.949900 -112.902000 8.984550 -0.406207 -0.000000 -2.204570 2.383080 1.880170 16.377300 -0.000001 -0.000001 1.138870 0.823934 0.923324 6.456720 -0.000001 -0.000000 5.205310 0.881610 6.422880 12.994200 -0.242716 4.980390 -92.993600 8.748320 -71.025200 5.348090 -0.000007 -0.000001 -69.808600 6.197650 -1.323900 24.328600 0.000019 0.000005 6.921210 25.857700 -15.553300 22.291600 -0.000001 0.000005 -4.692790 5.057480 6.061870 12.994500 -0.242716 -4.980390 88.490100 5.571270 -74.810400 -5.348130 -0.000001 -0.000004 -71.689100 27.511600 -1.772100 -24.328900 0.000322 -0.000009 1.181290 4.683530 -14.185300 -22.291500 -0.000108 -0.000004 0.695845 5.281560 0.583599 -2.192480 -6.469440 -0.000000 -172.585000 -8.140960 0.783458 39.081100 -0.000007 -0.000012 0.023680 -0.074811 17.564100 40.985400 -0.000006 -0.000013 -0.690576 12.005800 -70.079700 11.754300 -0.000000 0.000003 -0.000428 0.174550 -9.496770 -2.192510 6.469440 -0.000001 178.176000 3.913250 -178.109000 -39.081100 -0.002282 -0.040193 0.031865 -0.113435 14.119100 -40.985400 0.000008 0.000006 -4.871440 6.496670 -68.705600 -11.754300 -0.000006 -0.000006 -0.009625 0.268482 -5.666440
0.000000 0.000000 0.000000 0.000000 0.000000 -0.000000 -0.946807 92.938400 0.296640 87.640900 -2.150440 2.036280 15.735700 0.000005 -0.000001 115.700000 87.129200 -114.555000 8.984550 -0.406207 -0.000000 -2.616200 2.385340 2.343600 16.377300 -0.000001 -0.000001 0.505757 0.516361 1.469340 6.456720 -0.000001 -0.000000 4.307900 0.637536 7.604380 12.994200 -0.242716 4.980390 -93.033800 8.821910 -70.936200 5.348090 -0.000007 -0.000001 -67.840800 1.031210 -4.087120 24.328600 0.000019 0.000005 4.961750 28.032800 -10.471500 22.291600 -0.000001 0.000005 -8.783090 5.108390 4.892690 12.994500 -0.242716 -4.980390 88.464700 5.664790 -74.808500 -5.348130 -0.000001 -0.000004 -71.106800 26.184300 -1.504310 -24.328900 0.000322 -0.000009 1.169890 4.940040 -13.352800 -22.291500 -0.000108 -0.000004 0.869531 5.284350 0.506938 -2.192480 -6.469440 -0.000000 -172.844000 -8.619360 0.209911 39.081100 -0.000007 -0.000012 0.024587 -0.080125 17.059600 40.985400 -0.000006 -0.000013 -0.587102 12.533000 -69.905700 11.754300 -0.000000 0.000003 -0.000408 0.174234 -9.509610 -2.192510 6.469440 -0.000001 177.975000 4.056300 -178.692000 -39.081100 -0.002282 -0.040193 0.028107 -0.101730 13.687100 -40.985400 0.000008 0.000006 -5.399570 6.509160 -68.383100 -11.754300 -0.000006 -0.000006 -0.010046 0.271651 -5.536830
0.000000 0.000000 0.000000 0.000000 0.000000 -0.000000 -0.869509 93.023100 0.261564 87.858100 -1.849160 1.190200 15.735700 0.000005 -0.000001 116.629000 87.385000 -115.186000 8.984550 -0.406207 -0.000000 -3.118060 2.206100 2.946770 16.377300 -0.000001 -0.000001 -0.139093 0.386454 1.867620 6.456720 -0.000001 -0.000000 3.290730 0.702998 9.048020 12.994200 -0.242716 4.980390 -92.900800 8.393640 -70.856800 5.348090 -0.000007 -0.000001 -65.529900 -5.510340 -7.031000 24.328600 0.000019 0.000005 2.999270 32.691800 -5.546100 22.291600 -0.000001 0.000005 -15.130700 5.159370 3.700290 12.994500 -0.242716 -4.980390 88.429700 5.772910 -74.755200 -5.348130 -0.000001 -0.000004 -70.319100 24.570100 -1.213650 -24.328900 0.000322 -0.000009 1.185360 5.366280 -12.486500 -22.291500 -0.000108 -0.000004 1.183720 5.277090 0.703355 -2.192480 -6.469440 -0.000000 -173.199000 -8.918310 -0.296963 39.081100 -0.000007 -0.000012 0.024198 -0.083200 16.217100 40.985400 -0.000006 -0.000013 -0.559504 13.009500 -69.650300 11.754300 -0.000000 0.000003 -0.000556 0.176503 -9.417410 -2.192510 6.469440 -0.000001 177.733000 4.197440 -179.237000 -39.081100 -0.002282 -0.040193 0.024037 -0.089498 13.024900 -40.985400 0.000008 0.000006 -5.864550 6.370220 -67.982000 -11.754300 -0.000006 -0.000006 -0.009994 0.271264 -5.552680
0.000000 0.000000 0.000000 0.000000 0.000000 -0.000000 -0.791435 93.105500 0.215041 88.095900 -1.608240 0.236529 15.735700 0.000005 -0.000001 116.653000 87.672600 -114.804000 8.984550 -0.406207 -0.000000 -3.634860 1.903010 3.759740 16.377300 -0.000001 -0.000001 -0.940626 0.466537 2.295300 6.456720 -0.000001 -0.000000 2.146980 1.070950 10.425700 12.994200 -0.242716 4.980390 -92.653900 7.607190 -70.702500 5.348090 -0.000007 -0.000001 -62.741600 -13.547600 -9.889880 24.328600 0.000019 0.000005 0.801714 37.092800 -1.331600 22.291600 -0.000001 0.000005 -21.440900 5.142940 4.142390 12.994500 -0.242716 -4.980390 88.418200 5.791920 -74.696500 -5.348130 -0.000001 -0.000004 -69.315900 22.777300 -1.074400 -24.328900 0.000322 -0.000009 1.227580 5.939270 -11.710400 -22.291500 -0.000108 -0.000004 1.461270 5.271370 0.861342 -2.192480 -6.469440 -0.000000 -173.624000 -9.122320 -0.888056 39.081100 -0.000007 -0.000012 0.024037 -0.087708 15.326200 40.985400 -0.000006 -0.000013 -0.563457 13.320700 -69.359000 11.754300 -0.000000 0.000003 -0.000547 0.176375 -9.422620 -2.192510 6.469440 -0.000001 177.488000 4.316830 -179.925000 -39.081100 -0.002282 -0.040193 0.022183 -0.085735 12.399100 -40.985400 0.000008 0.000006 -6.250390 6.274240 -67.598500 -11.754300 -0.000006 -0.000006 -0.010020 0.271457 -5.544760
